<?xml version="1.0" encoding="UTF-8" standalone="no"?>
<!-- Created with Inkscape (http://www.inkscape.org/) -->

<svg
   xmlns:dc="http://purl.org/dc/elements/1.1/"
   xmlns:cc="http://creativecommons.org/ns#"
   xmlns:rdf="http://www.w3.org/1999/02/22-rdf-syntax-ns#"
   xmlns:svg="http://www.w3.org/2000/svg"
   xmlns="http://www.w3.org/2000/svg"
   xmlns:sodipodi="http://sodipodi.sourceforge.net/DTD/sodipodi-0.dtd"
   xmlns:inkscape="http://www.inkscape.org/namespaces/inkscape"
   id="svg4311"
   height="48"
   width="48"
   version="1.1"
   viewBox="0 0 48 48.000001"
   inkscape:version="0.91 r13725"
   sodipodi:docname="icon_search.svg">
  <defs
     id="defs4884" />
  <sodipodi:namedview
     pagecolor="#ffffff"
     bordercolor="#666666"
     borderopacity="1"
     objecttolerance="10"
     gridtolerance="10"
     guidetolerance="10"
     inkscape:pageopacity="0"
     inkscape:pageshadow="2"
     inkscape:window-width="1920"
     inkscape:window-height="1017"
     id="namedview4882"
     showgrid="false"
     inkscape:zoom="4.9166667"
     inkscape:cx="-42.282731"
     inkscape:cy="15.889434"
     inkscape:window-x="-8"
     inkscape:window-y="32"
     inkscape:window-maximized="1"
     inkscape:current-layer="svg4311"
     fit-margin-top="0"
     fit-margin-left="0"
     fit-margin-right="0"
     fit-margin-bottom="0"
     inkscape:showpageshadow="false" />
  <title
     id="title4873">Search Icon</title>
  <metadata
     id="metadata4316">
    <rdf:RDF>
      <cc:Work
         rdf:about="">
        <dc:format>image/svg+xml</dc:format>
        <dc:type
           rdf:resource="http://purl.org/dc/dcmitype/StillImage" />
        <dc:title>Search Icon</dc:title>
      </cc:Work>
    </rdf:RDF>
  </metadata>
  <g
     id="layer1"
     transform="matrix(0.50021853,0,0,0.49999995,11.992477,-490.18915)">
    <g
       id="g4643"
       transform="matrix(0.19985,0,0,0.19985,-141.41,924.24)"
       style="clip-rule:evenodd;fill:#ffffff;fill-rule:evenodd">
      <path
         id="path4645"
         d="m -148.42,557.74 c -0.12803,-0.005 -0.2592,-0.003 -0.39258,0.01 -1.5175,0.14807 -2.4461,1.5018 -2.334,2.8867 0.14029,1.7342 2.2397,3.0189 3.9238,2.0098 0.52036,0.22222 0.83941,-0.27209 1.0371,-0.58398 0.0451,-0.20696 -0.0769,-0.31025 -0.0332,-0.42188 0.98346,-1.739 -0.2808,-3.8186 -2.2012,-3.9004 z m -0.11914,0.81836 a 1.8127,1.8127 0 0 1 1.8125,1.8125 1.8127,1.8127 0 0 1 -1.8125,1.8125 1.8127,1.8127 0 0 1 -1.8125,-1.8125 1.8127,1.8127 0 0 1 1.8125,-1.8125 z"
         transform="matrix(23.13,0,0,23.13,4243.9,-12459)"
         inkscape:connector-curvature="0" />
      <path
         id="path4647"
         d="m 867.05,545.88 c 5.64,4.662 12.688,11.109 20.999,18.749 5.099,4.687 18.499,13.573 19.5,18.749 1.586,8.211 -8.263,18.254 -16.5,17.25 -6.874,-0.838 -14.254,-13.003 -20.249,-19.499 -6.767,-7.331 -13.38,-14.483 -18,-21 6.988,-2.511 11.348,-7.65 14.25,-14.249 z"
         inkscape:connector-curvature="0" />
    </g>
  </g>
</svg>
