<?xml version="1.0" encoding="UTF-8" standalone="no"?>
<!-- Created with Inkscape (http://www.inkscape.org/) -->

<svg
   xmlns:dc="http://purl.org/dc/elements/1.1/"
   xmlns:cc="http://creativecommons.org/ns#"
   xmlns:rdf="http://www.w3.org/1999/02/22-rdf-syntax-ns#"
   xmlns:svg="http://www.w3.org/2000/svg"
   xmlns="http://www.w3.org/2000/svg"
   xmlns:sodipodi="http://sodipodi.sourceforge.net/DTD/sodipodi-0.dtd"
   xmlns:inkscape="http://www.inkscape.org/namespaces/inkscape"
   width="48"
   height="16"
   viewBox="0 0 48 16"
   id="svg4256"
   version="1.1"
   inkscape:version="0.91 r13725"
   sodipodi:docname="logo_cropped.svg"
   inkscape:export-filename="C:\Develop\Apache24\htdocs\mobiclinic\www\img\logo_cropped.png"
   inkscape:export-xdpi="90"
   inkscape:export-ydpi="90">
  <defs
     id="defs4258" />
  <sodipodi:namedview
     id="base"
     pagecolor="#ffffff"
     bordercolor="#666666"
     borderopacity="1.0"
     inkscape:pageopacity="0.0"
     inkscape:pageshadow="2"
     inkscape:zoom="7.6102564"
     inkscape:cx="1.7840292"
     inkscape:cy="4.2857143"
     inkscape:document-units="px"
     inkscape:current-layer="layer1"
     showgrid="false"
     units="px"
     inkscape:showpageshadow="false"
     inkscape:window-width="1920"
     inkscape:window-height="1017"
     inkscape:window-x="-8"
     inkscape:window-y="32"
     inkscape:window-maximized="1" />
  <metadata
     id="metadata4261">
    <rdf:RDF>
      <cc:Work
         rdf:about="">
        <dc:format>image/svg+xml</dc:format>
        <dc:type
           rdf:resource="http://purl.org/dc/dcmitype/StillImage" />
        <dc:title />
      </cc:Work>
    </rdf:RDF>
  </metadata>
  <g
     inkscape:label="Layer 1"
     inkscape:groupmode="layer"
     id="layer1"
     transform="translate(0,-1036.3622)">
    <g
       id="g4870"
       transform="translate(-1.7142861,3.9999646)">
      <g
         transform="matrix(2.0277789,0,0,2.0277789,-55.247567,-1041.2911)"
         id="g4620">
        <path
           id="path4602"
           style="clip-rule:evenodd;fill:none;stroke:#000000;stroke-width:0.16421239"
           inkscape:connector-curvature="0"
           d="m 31.383817,1027.6319 -1.277864,0.6654 c -0.061,0.032 -0.138981,0.013 -0.174159,-0.042 l -0.558177,-0.8681 c -0.03518,-0.055 -0.01421,-0.1248 0.04679,-0.1564 l 1.281676,-0.6607 -1.281503,-0.6645 c -0.061,-0.032 -0.08197,-0.1016 -0.04679,-0.1564 l 0.55835,-0.8681 c 0.03518,-0.055 0.113161,-0.074 0.17416,-0.042 l 1.277863,0.6663 0,-1.3287 c 0,-0.063 0.05719,-0.1145 0.127544,-0.1145 l 1.116354,0 c 0.07053,0 0.127544,0.051 0.127544,0.1145 l 0,1.3278 1.277863,-0.6654 c 0.06117,-0.032 0.139155,-0.013 0.174333,0.042 l 0.558177,0.868 c 0.03535,0.055 0.01438,0.1249 -0.04679,0.1565 l -1.281676,0.6606 1.281676,0.6646 c 0.06117,0.032 0.08197,0.1016 0.04696,0.1564 l -0.55835,0.868 c -0.03535,0.055 -0.113334,0.074 -0.174333,0.042 l -1.277863,-0.6663 0,1.3287 c 0,0.063 -0.05701,0.1146 -0.127371,0.1146 l -1.116354,0 c -0.07053,0 -0.127717,-0.051 -0.127717,-0.1146 l 0,-1.3278 z" />
        <path
           id="path4604"
           style="clip-rule:evenodd;fill:#000000;fill-rule:evenodd;stroke:#000000;stroke-width:0.12089316"
           inkscape:connector-curvature="0"
           d="m 31.383817,1027.6319 -1.277864,0.6654 c -0.061,0.032 -0.138981,0.013 -0.174159,-0.042 l -0.558177,-0.8681 c -0.03518,-0.055 -0.01421,-0.1248 0.04679,-0.1564 l 1.281676,-0.6607 -1.281503,-0.6645 c -0.061,-0.032 -0.08197,-0.1016 -0.04679,-0.1564 l 0.55835,-0.8681 c 0.03518,-0.055 0.113161,-0.074 0.17416,-0.042 l 1.277863,0.6663 0,-1.3287 c 0,-0.063 0.05719,-0.1145 0.127544,-0.1145 l 1.116354,0 c 0.07053,0 0.127544,0.051 0.127544,0.1145 l 0,1.3278 1.277863,-0.6654 c 0.06117,-0.032 0.139155,-0.013 0.174333,0.042 l 0.558177,0.868 c 0.03535,0.055 0.01438,0.1249 -0.04679,0.1565 l -1.281676,0.6606 1.281676,0.6646 c 0.06117,0.032 0.08197,0.1016 0.04696,0.1564 l -0.55835,0.868 c -0.03535,0.055 -0.113334,0.074 -0.174333,0.042 l -1.277863,-0.6663 0,1.3287 c 0,0.063 -0.05701,0.1146 -0.127371,0.1146 l -1.116354,0 c -0.07053,0 -0.127717,-0.051 -0.127717,-0.1146 l 0,-1.3278 z" />
        <path
           id="path4606"
           style="clip-rule:evenodd;fill:#ffffff;fill-rule:evenodd;stroke:#000000;stroke-width:0.16421239"
           inkscape:connector-curvature="0"
           d="m 32.040598,1028.7694 c -0.03189,0 -0.08509,-0.019 -0.08509,-0.1016 0,-0.083 -0.06377,-4.1052 -0.06377,-4.1978 0,-0.092 0.116973,-0.1016 0.17,-0.1016 0.05303,0 0.170001,0.01 0.170001,0.1016 0,0.093 -0.06377,4.1144 -0.06377,4.1978 0,0.083 -0.0532,0.1016 -0.08491,0.1016 l -0.04246,0 z" />
        <path
           id="path4608"
           style="clip-rule:evenodd;fill:#ffffff;fill-rule:evenodd;stroke:#000000;stroke-width:0.0302315"
           inkscape:connector-curvature="0"
           d="m 31.884634,1025.4783 c 0.06776,-0.061 0.195301,-0.061 0.239144,-0.021 0.06776,0.061 0.180745,0.045 0.263232,-0.029 0.0837,-0.075 0.0068,-0.2017 -0.07971,-0.2792 -0.0837,-0.075 -0.329604,-0.117 -0.446577,-0.043 -0.125637,0.08 -0.311061,0.2292 -0.311061,0.4725 0,0.2434 0.207259,0.4152 0.350745,0.4653 l -0.01577,-0.5655 z" />
        <ellipse
           ry="0.033455618"
           rx="0.037258018"
           id="ellipse4610"
           style="clip-rule:evenodd;fill:#ff7f00;fill-rule:evenodd;stroke:#000000;stroke-width:0.16421239"
           cx="32.20002"
           cy="1025.2278" />
        <path
           id="path4612"
           style="clip-rule:evenodd;fill:#ffffff;fill-rule:evenodd;stroke:#000000;stroke-width:0.0302315"
           inkscape:connector-curvature="0"
           d="m 31.903696,1026.7792 c -0.524905,-0.1394 -0.340174,-0.8258 0.342947,-0.7159 l 0,-0.4297 c 0.494405,0.1325 0.486434,0.8556 -0.350745,0.7732 l 0.0078,0.3724 z" />
        <path
           id="path4614"
           style="clip-rule:evenodd;fill:#ffffff;fill-rule:evenodd;stroke:#000000;stroke-width:0.0302315"
           inkscape:connector-curvature="0"
           d="m 31.915826,1027.4748 c -0.404292,-0.2148 -0.21523,-0.6038 0.310888,-0.6372 l 0,-0.3151 c 0.494406,0.2959 0.239318,0.654 -0.318859,0.6658 l 0.008,0.2865 z" />
        <path
           id="path4616"
           d="m 31.924491,1028.0925 c -0.265831,-0.2172 -0.0506,-0.3865 0.287147,-0.5012 l 0,-0.2292 c 0.464079,0.4209 -0.123731,0.3626 -0.291479,0.575 l 0.0043,0.1554 z"
           style="clip-rule:evenodd;fill:#ffffff;fill-rule:evenodd;stroke:#000000;stroke-width:0.0302315"
           inkscape:connector-curvature="0" />
        <path
           id="path4618"
           d="m 32.193095,1028.1672 c 0.224588,0.2183 -0.465118,0.2636 -0.09704,0.1146 0.02547,-0.01 0.07538,-0.023 0.09427,-0.042 l 0.0028,-0.073 z"
           style="clip-rule:evenodd;fill:#ffffff;fill-rule:evenodd;stroke:#000000;stroke-width:0.0302315"
           inkscape:connector-curvature="0" />
      </g>
      <text
         sodipodi:linespacing="125%"
         id="text4631"
         y="1042.7217"
         x="16.02384"
         style="font-style:normal;font-weight:normal;font-size:6.33717442px;line-height:125%;font-family:sans-serif;letter-spacing:0px;word-spacing:0px;fill:#000000;fill-opacity:1;stroke:none;stroke-width:1px;stroke-linecap:butt;stroke-linejoin:miter;stroke-opacity:1"
         xml:space="preserve"><tspan
           y="1042.7217"
           x="16.02384"
           id="tspan4633"
           sodipodi:role="line"><tspan
   id="tspan4635"
   style="fill:#008080">mobi</tspan>clinic</tspan></text>
    </g>
  </g>
</svg>
