<?xml version="1.0" encoding="UTF-8" standalone="no"?>
<!-- Created with Inkscape (http://www.inkscape.org/) -->

<svg
   xmlns:dc="http://purl.org/dc/elements/1.1/"
   xmlns:cc="http://creativecommons.org/ns#"
   xmlns:rdf="http://www.w3.org/1999/02/22-rdf-syntax-ns#"
   xmlns:svg="http://www.w3.org/2000/svg"
   xmlns="http://www.w3.org/2000/svg"
   xmlns:sodipodi="http://sodipodi.sourceforge.net/DTD/sodipodi-0.dtd"
   xmlns:inkscape="http://www.inkscape.org/namespaces/inkscape"
   width="48"
   height="48"
   viewBox="0 0 48 48.000001"
   id="svg2"
   version="1.1"
   inkscape:version="0.91 r13725"
   sodipodi:docname="logo.svg"
   inkscape:export-filename="C:\Develop\Apache24\htdocs\mobiclinic\www\icon.png"
   inkscape:export-xdpi="240"
   inkscape:export-ydpi="240">
  <title
     id="title4639">mobiclinic logo</title>
  <defs
     id="defs4" />
  <sodipodi:namedview
     id="base"
     pagecolor="#ffffff"
     bordercolor="#666666"
     borderopacity="1.0"
     inkscape:pageopacity="0.0"
     inkscape:pageshadow="2"
     inkscape:zoom="12.537979"
     inkscape:cx="31.336664"
     inkscape:cy="26.615204"
     inkscape:document-units="px"
     inkscape:current-layer="layer1"
     showgrid="false"
     units="px"
     inkscape:showpageshadow="false"
     inkscape:window-width="1920"
     inkscape:window-height="1017"
     inkscape:window-x="-8"
     inkscape:window-y="32"
     inkscape:window-maximized="1" />
  <metadata
     id="metadata7">
    <rdf:RDF>
      <cc:Work
         rdf:about="">
        <dc:format>image/svg+xml</dc:format>
        <dc:type
           rdf:resource="http://purl.org/dc/dcmitype/StillImage" />
        <dc:title>mobiclinic logo</dc:title>
      </cc:Work>
    </rdf:RDF>
  </metadata>
  <g
     inkscape:label="Layer 1"
     inkscape:groupmode="layer"
     id="layer1"
     transform="translate(0,-1004.3621)"
     style="display:inline">
    <path
       id="path12"
       d="m -155.08282,990.74603 c 0,1.269 -1.231,2.25 -2.75,2.25 l -218,0 c -1.519,0 -2.75,-1.23 -2.75,-2.5 l 223.5,0.25 z"
       style="fill:#000000;stroke:#000000;stroke-width:0.75"
       inkscape:connector-curvature="0" />
    <g
       id="g4474"
       transform="translate(-32.416542,-8.8044917)">
      <path
         d="m -236.53282,1049.246 c 1.502,0 5.52,-0.119 5.52,-1.619 l 0,-1.76 c 0,-1.502 -3.268,-3.619 -4.77,-3.619 l -1.658,0 c -1.502,0 -4.77,2.117 -4.77,3.619 l 0,1.76 c 0,1.5 4.018,1.619 5.52,1.619 l 0.158,0 z"
         inkscape:connector-curvature="0"
         style="fill:#ffffff;stroke:#000000;stroke-width:0.75"
         id="path16" />
      <path
         d="m -193.89282,1114.886 c 2.805,0 6.936,-0.083 9.836,-0.699 7.02,-1.492 8.598,-8.725 8.598,-18.265 l -182.53,0 12,18.964 152.11,0 z"
         inkscape:connector-curvature="0"
         style="fill:#000000;stroke:#000000;stroke-width:0.60000002"
         id="path18" />
      <path
         d="m -250.59282,1050.906 16.352,0 c 5.65,0 8.639,-0.289 12.779,1.177 4.355,1.542 6.017,3.515 7.439,4.938 1.067,1.067 15.609,15.169 17.65,17.888 0,0 20.898,0.523 20.898,8.71 l 0,22.425 c -4.883,4.881 -3.932,5.892 -6.424,6.119 -2.492,0.227 -8.154,0.34 -11.102,0.34 l -26.4,0.113 -31.193,0 0,-61.71 z"
         inkscape:connector-curvature="0"
         style="fill:#ffffff;stroke:#000000;stroke-width:1.5"
         id="path20" />
      <path
         d="m -183.96282,1112.616 -1.453,-10.844 c -0.559,-3.454 -3.643,-7.172 -7.625,-7.172 l -13.217,0 c -3.801,0 -7.717,4.114 -8.875,7.922 l -2.768,10.094"
         inkscape:connector-curvature="0"
         style="fill:#000000;stroke:#000000;stroke-width:0.75"
         id="path22" />
      <circle
         r="14.312"
         cx="-200.25282"
         cy="1112.266"
         style="fill:#000000;stroke:#ffffff;stroke-width:0.83099997"
         id="circle24" />
      <circle
         r="8.0349998"
         cx="-200.25282"
         cy="1112.266"
         style="fill:#ffffff;stroke:#000000;stroke-width:1.32959998"
         id="circle26" />
      <path
         d="m -242.46282,1073.156 c -1.502,0 -2.719,-1.218 -2.719,-2.72 l 0,-10.7 c 0,-1.502 1.217,-2.72 2.719,-2.72 l 28.438,0 17.65,17.888 -13.924,0 -32.164,-1.75 z"
         inkscape:connector-curvature="0"
         style="fill:#ffffff;stroke:#000000;stroke-width:1.5"
         id="path28" />
      <line
         x1="-217.12282"
         y1="1057.016"
         x2="-208.96283"
         y2="1074.906"
         style="fill:none;stroke:#000000"
         id="line30" />
      <path
         d="m -209.61282,1077.176 c 0,0.904 0.145,1.639 1.25,1.639 l 1.25,0 c 1.104,0 1.5,-0.734 1.5,-1.639 l 0,-8.596 c 0,-0.904 -0.396,-1.638 -1.5,-1.638 l -1.25,0 c -1.105,0 -1.25,0.733 -1.25,1.638 l 0,8.596 z"
         inkscape:connector-curvature="0"
         style="fill:#ffffff;stroke:#000000;stroke-width:0.75"
         id="path32" />
      <path
         d="m -182.22282,1107.626 c 0,1.503 0.422,3.174 1.922,3.174 l 8.209,0 c 1.5,0 1.922,-1.671 1.922,-3.174 l 0,-2.266 c 0,-1.502 -0.422,-3.173 -1.922,-3.173 l -8.209,0 c -1.5,0 -1.922,1.671 -1.922,3.173 l 0,2.266 z"
         inkscape:connector-curvature="0"
         style="fill:#ffffff;stroke:#000000;stroke-width:1.5"
         id="path34" />
      <path
         d="m -175.97282,1085.716 -3.285,0 c -0.662,0 -0.975,0.55 -1.199,1.2 l 1.6,10.2 c 0,0.662 0.537,1.2 1.201,1.2 l 1.684,0"
         inkscape:connector-curvature="0"
         style="fill:#ffffff;stroke:#000000;stroke-width:0.75;stroke-linecap:round"
         id="path36" />
      <line
         x1="-187.61282"
         y1="1086.536"
         x2="-244.90283"
         y2="1086.536"
         style="fill:#ffffff;stroke:#000000;stroke-width:2.5"
         id="line38" />
      <line
         x1="-190.61282"
         y1="1086.536"
         x2="-241.43283"
         y2="1086.536"
         style="fill:none;stroke:#000000"
         id="line40" />
      <rect
         x="-363.10883"
         y="1037.496"
         width="112.5"
         height="75"
         style="fill:#ffffff;stroke:#000000;stroke-width:1.5"
         id="rect42" />
      <path
         d="m -339.32782,1112.616 1.453,-10.844 c 0.559,-3.454 3.643,-7.172 7.625,-7.172 l 15.281,0 c 3.982,0 7.066,3.718 7.625,7.172 l 1.453,10.844 -33.435,0 z"
         inkscape:connector-curvature="0"
         style="fill:#000000;stroke:#000000;stroke-width:0.75"
         id="path44" />
      <circle
         r="14.312"
         cx="-322.60281"
         cy="1112.3461"
         style="fill:#000000;stroke:#ffffff;stroke-width:0.83099997"
         id="circle46" />
      <circle
         r="8.0349998"
         cx="-322.61282"
         cy="1112.3461"
         style="fill:#ffffff;stroke:#000000;stroke-width:1.32959998"
         id="circle48" />
      <path
         d="m -293.36282,1068.616 c 0,1.104 0.896,2 2,2 l 18.25,0 c 1.104,0 2,-0.896 2,-2 l 0,-12.75 c 0,-1.104 -0.896,-2 -2,-2 l -18.25,0 c -1.104,0 -2,0.896 -2,2 l 0,12.75 z"
         inkscape:connector-curvature="0"
         style="fill:#ffffff;stroke:#000000;stroke-width:0.75"
         id="path50" />
      <circle
         r="3.75"
         cx="-354.60883"
         cy="1046.246"
         style="fill:#ffffff;stroke:#000000;stroke-width:0.75"
         id="circle52" />
      <circle
         r="3.75"
         cx="-260.11282"
         cy="1046.246"
         style="fill:#ffffff;stroke:#000000;stroke-width:0.75"
         id="circle54" />
      <path
         d="m -268.61282,1111.746 c 0,1.104 -0.896,2 -2,2 l -24,0 c -1.104,0 -2,-0.896 -2,-2 l 0,-62.5 c 0,-1.104 0.896,-2 2,-2 l 24,0 c 1.104,0 2,0.896 2,2 l 0,62.5 z"
         inkscape:connector-curvature="0"
         style="fill:none;stroke:#000000;stroke-width:0.75"
         id="path56" />
      <path
         d="m -328.89282,1070.866 -7.374,4.276 c -0.352,0.203 -0.802,0.082 -1.005,-0.27 l -3.221,-5.579 c -0.203,-0.352 -0.082,-0.802 0.27,-1.005 l 7.396,-4.246 -7.395,-4.27 c -0.352,-0.203 -0.473,-0.653 -0.27,-1.005 l 3.222,-5.579 c 0.203,-0.352 0.653,-0.473 1.005,-0.27 l 7.374,4.282 0,-8.539 c 0,-0.407 0.33,-0.736 0.736,-0.736 l 6.442,0 c 0.407,0 0.736,0.329 0.736,0.736 l 0,8.533 7.374,-4.276 c 0.353,-0.203 0.803,-0.082 1.006,0.27 l 3.221,5.578 c 0.204,0.353 0.083,0.803 -0.27,1.006 l -7.396,4.245 7.396,4.271 c 0.353,0.203 0.473,0.653 0.271,1.005 l -3.222,5.578 c -0.204,0.353 -0.654,0.474 -1.006,0.271 l -7.374,-4.282 0,8.539 c 0,0.406 -0.329,0.736 -0.735,0.736 l -6.442,0 c -0.407,0 -0.737,-0.33 -0.737,-0.736 l 0,-8.533 z"
         inkscape:connector-curvature="0"
         style="clip-rule:evenodd;fill:none;stroke:#000000"
         id="path58" />
      <path
         d="m -328.89282,1070.866 -7.374,4.276 c -0.352,0.203 -0.802,0.082 -1.005,-0.27 l -3.221,-5.579 c -0.203,-0.352 -0.082,-0.802 0.27,-1.005 l 7.396,-4.246 -7.395,-4.27 c -0.352,-0.203 -0.473,-0.653 -0.27,-1.005 l 3.222,-5.579 c 0.203,-0.352 0.653,-0.473 1.005,-0.27 l 7.374,4.282 0,-8.539 c 0,-0.407 0.33,-0.736 0.736,-0.736 l 6.442,0 c 0.407,0 0.736,0.329 0.736,0.736 l 0,8.533 7.374,-4.276 c 0.353,-0.203 0.803,-0.082 1.006,0.27 l 3.221,5.578 c 0.204,0.353 0.083,0.803 -0.27,1.006 l -7.396,4.245 7.396,4.271 c 0.353,0.203 0.473,0.653 0.271,1.005 l -3.222,5.578 c -0.204,0.353 -0.654,0.474 -1.006,0.271 l -7.374,-4.282 0,8.539 c 0,0.406 -0.329,0.736 -0.735,0.736 l -6.442,0 c -0.407,0 -0.737,-0.33 -0.737,-0.736 l 0,-8.533 z"
         inkscape:connector-curvature="0"
         style="clip-rule:evenodd;fill:#000000;fill-rule:evenodd;stroke:#000000;stroke-width:0.73619998"
         id="path60" />
      <path
         d="m -325.10282,1078.176 c -0.184,0 -0.491,-0.119 -0.491,-0.653 0,-0.535 -0.368,-26.382 -0.368,-26.977 0,-0.594 0.675,-0.653 0.981,-0.653 0.306,0 0.981,0.06 0.981,0.653 0,0.595 -0.368,26.441 -0.368,26.977 0,0.534 -0.307,0.653 -0.49,0.653 l -0.245,0 z"
         inkscape:connector-curvature="0"
         style="clip-rule:evenodd;fill:#ffffff;fill-rule:evenodd;stroke:#000000"
         id="path62" />
      <path
         d="m -326.00282,1057.026 c 0.391,-0.392 1.127,-0.392 1.38,-0.138 0.391,0.391 1.043,0.291 1.519,-0.185 0.483,-0.483 0.039,-1.296 -0.46,-1.794 -0.483,-0.483 -1.902,-0.752 -2.577,-0.276 -0.725,0.511 -1.795,1.473 -1.795,3.037 0,1.564 1.196,2.668 2.024,2.99 l -0.091,-3.634 z"
         inkscape:connector-curvature="0"
         style="clip-rule:evenodd;fill:#ffffff;fill-rule:evenodd;stroke:#000000;stroke-width:0.1841"
         id="path64" />
      <circle
         r="0.215"
         cy="1055.416"
         cx="-324.18283"
         style="clip-rule:evenodd;fill:#ff7f00;fill-rule:evenodd;stroke:#000000"
         id="circle66" />
      <path
         d="m -325.89282,1065.386 c -3.029,-0.896 -1.963,-5.307 1.979,-4.601 l 0,-2.761 c 2.853,0.851 2.807,5.498 -2.024,4.969 l 0.045,2.393 z"
         inkscape:connector-curvature="0"
         style="clip-rule:evenodd;fill:#ffffff;fill-rule:evenodd;stroke:#000000;stroke-width:0.1841"
         id="path68" />
      <path
         d="m -325.82282,1069.856 c -2.333,-1.38 -1.242,-3.88 1.794,-4.095 l 0,-2.025 c 2.853,1.902 1.381,4.203 -1.84,4.279 l 0.046,1.841 z"
         inkscape:connector-curvature="0"
         style="clip-rule:evenodd;fill:#ffffff;fill-rule:evenodd;stroke:#000000;stroke-width:0.1841"
         id="path70" />
      <path
         inkscape:connector-curvature="0"
         style="clip-rule:evenodd;fill:#ffffff;fill-rule:evenodd;stroke:#000000;stroke-width:0.1841"
         d="m -325.77282,1073.826 c -1.534,-1.396 -0.292,-2.484 1.657,-3.221 l 0,-1.473 c 2.678,2.705 -0.714,2.33 -1.682,3.695 l 0.025,0.999 z"
         id="path74" />
      <path
         inkscape:connector-curvature="0"
         style="clip-rule:evenodd;fill:#ffffff;fill-rule:evenodd;stroke:#000000;stroke-width:0.1841"
         d="m -324.22282,1074.306 c 1.296,1.403 -2.684,1.694 -0.56,0.736 0.147,-0.058 0.435,-0.148 0.544,-0.269 l 0.016,-0.467 z"
         id="path76" />
      <path
         d="m -367.63482,1107.626 c 0,1.503 0.422,3.174 1.922,3.174 l 8.209,0 c 1.5,0 1.922,-1.671 1.922,-3.174 l 0,-2.266 c 0,-1.502 -0.422,-3.173 -1.922,-3.173 l -8.209,0 c -1.5,0 -1.922,1.671 -1.922,3.173 l 0,2.266 z"
         inkscape:connector-curvature="0"
         style="fill:#ffffff;stroke:#000000;stroke-width:1.5"
         id="path78" />
    </g>
    <path
       id="path82"
       style="fill:none;stroke:#000000;stroke-width:1.5"
       inkscape:connector-curvature="0"
       d="m -393.05682,984.39603 c 4.883,4.881 7.826,5.891 10.319,6.119 2.492,0.227 8.154,0.34 11.102,0.34 l 26.399,0.113 41.693,0 0,-59.34 c 0,-12.154 0.111,-12.869 -6.913,-12.869 l -13.688,0 -53.413,0 c -4.5,0 -5.624,2.302 -6.5,4.113 -1.875,3.875 -9,22.625 -9,27.139 l 0,34.385 z" />
    <path
       id="path84"
       style="fill:none;stroke:#000000;stroke-width:1.5"
       inkscape:connector-curvature="0"
       d="m -161.80282,918.75803 -113.5,0 0,72.096 c 2.492,0.227 38.474,0 41.421,0 l 26.399,0.113 56.93,0 0,-59.34 -11.25,-12.869 z" />
    <path
       id="path86"
       style="fill:none;stroke:#000000;stroke-width:1.5"
       inkscape:connector-curvature="0"
       d="m -384.05682,922.87103 c -1.875,3.875 -9,22.625 -9,27.139" />
    <path
       id="path88"
       style="fill:#ffffff;stroke:#000000;stroke-width:0.75"
       inkscape:connector-curvature="0"
       d="m -371.47882,916.49503 c 1.502,0 5.52,-0.119 5.52,-1.619 l 0,-1.76 c 0,-1.502 -3.268,-3.619 -4.77,-3.619 l -1.658,0 c -1.502,0 -4.77,2.117 -4.77,3.619 l 0,1.76 c 0,1.5 4.018,1.619 5.52,1.619 l 0.158,0 z" />
    <path
       id="path90"
       style="fill:#ffffff;stroke:#000000;stroke-width:0.75"
       inkscape:connector-curvature="0"
       d="m -171.48282,916.49503 c 1.502,0 5.52,-0.119 5.52,-1.619 l 0,-1.76 c 0,-1.502 -3.268,-3.619 -4.77,-3.619 l -1.658,0 c -1.502,0 -4.77,2.117 -4.77,3.619 l 0,1.76 c 0,1.5 4.018,1.619 5.52,1.619 l 0.158,0 z" />
    <path
       id="path92"
       style="fill:#ffffff;stroke:#000000;stroke-width:1.5"
       inkscape:connector-curvature="0"
       d="m -383.19682,984.79603 c 0,1.502 -0.422,3.174 -1.922,3.174 l -10.209,0 c -1.5,0 -1.922,-1.672 -1.922,-3.174 l 0,-2.266 c 0,-1.502 0.422,-3.174 1.922,-3.174 l 10.209,0 c 1.5,0 1.922,1.672 1.922,3.174 l 0,2.266 z" />
    <path
       id="path94"
       style="fill:#ffffff;stroke:#000000;stroke-width:1.5"
       inkscape:connector-curvature="0"
       d="m -353.93182,944.69003 c 1.502,0 2.719,-1.219 2.719,-2.721 l 0,-14.947 c 0,-1.502 -1.217,-2.721 -2.719,-2.721 l -17.753,0 -5.421,20.389 14.549,0 8.625,0 z" />
    <path
       id="path96"
       style="fill:#ffffff;stroke:#000000;stroke-width:0.75"
       inkscape:connector-curvature="0"
       d="m -366.55682,945.24603 c 0,1.105 -0.145,2 -1.25,2 l -1.25,0 c -1.104,0 -1.5,-0.895 -1.5,-2 l 0,-12.5 c 0,-1.104 0.396,-2 1.5,-2 l 1.25,0 c 1.105,0 1.25,0.896 1.25,2 l 0,12.5 z" />
    <path
       id="path98"
       style="fill:#ffffff;stroke:#000000;stroke-width:1.5"
       inkscape:connector-curvature="0"
       d="m -374.38982,924.37103 -10.417,0 c -1.125,2.375 -8.25,21.125 -8.25,25.639 7.5,0 11,-0.889 13,-6.514 l 5.667,-19.125 z" />
    <polyline
       id="polyline100"
       style="fill:none;stroke:#000000"
       points="127.94 102.25 116.36 102.25 83.692 102.25 38.359 102.25"
       transform="translate(-431.58282,874.49603)" />
    <path
       id="path102"
       style="fill:#000000;stroke:#000000"
       inkscape:connector-curvature="0"
       d="m -356.05682,990.49603 c 0,-11.46 9.29,-20.75 20.75,-20.75 11.46,0 20.75,9.29 20.75,20.75 l -41.5,0 z" />
    <circle
       id="circle104"
       style="fill:#000000;stroke:#ffffff"
       cy="991.24603"
       cx="-334.80783"
       r="17.598" />
    <circle
       id="circle106"
       style="fill:#ffffff;stroke:#000000;stroke-width:0.88870001"
       cy="991.24603"
       cx="-334.80682"
       r="9.8800001" />
    <path
       id="path108"
       style="fill:#000000;stroke:#000000"
       inkscape:connector-curvature="0"
       d="m -224.72282,990.49603 c 0,-11.46 9.29,-20.75 20.75,-20.75 11.46,0 20.75,9.29 20.75,20.75 l -41.5,0 z" />
    <circle
       id="circle110"
       style="fill:#000000;stroke:#ffffff"
       cy="991.24603"
       cx="-203.97282"
       r="17.598" />
    <circle
       id="circle112"
       style="fill:#ffffff;stroke:#000000;stroke-width:0.88870001"
       cy="991.24603"
       cx="-203.97282"
       r="9.8800001" />
    <polyline
       id="polyline114"
       style="fill:none;stroke:#000000"
       points="252.03 116.25 252.03 89.833 203.03 89.833 203.03 116.25"
       transform="translate(-431.58282,874.49603)" />
    <polyline
       id="polyline116"
       style="fill:none;stroke:#000000;stroke-width:1.5"
       points="128.04 108.25 128.04 116.47 156.28 116.47 156.28 108.25"
       transform="translate(-431.58282,874.49603)" />
    <rect
       id="rect118"
       style="fill:none;stroke:#000000"
       height="20.971001"
       width="28.237"
       y="925.38605"
       x="-303.54282" />
    <path
       id="path120"
       style="fill:#ffffff;stroke:#000000"
       inkscape:connector-curvature="0"
       d="m -308.30282,941.99603 c 0,1.657 -1.343,3 -3,3 l -14.5,0 c -1.657,0 -3,-1.343 -3,-3 l 0,-14.5 c 0,-1.657 1.343,-3 3,-3 l 14.5,0 c 1.657,0 3,1.343 3,3 l 0,14.5 z" />
    <path
       id="path122"
       style="fill:#ffffff;stroke:#000000"
       inkscape:connector-curvature="0"
       d="m -335.05682,941.99603 c 0,1.657 -1.343,3 -3,3 l -4.5,0 c -1.657,0 -3,-1.343 -3,-3 l 0,-14.5 c 0,-1.657 1.343,-3 3,-3 l 4.5,0 c 1.657,0 3,1.343 3,3 l 0,14.5 z" />
    <path
       id="path124"
       style="fill:#ffffff;stroke:#000000;stroke-width:0.75;stroke-linecap:round"
       inkscape:connector-curvature="0"
       d="m -392.80082,961.02903 1.784,0 c 0.663,0 0.976,0.549 1.2,1.199 l -0.1,10.201 c 0,0.662 -0.538,1.199 -1.201,1.199 l -1.684,0" />
    <circle
       id="circle126"
       style="fill:none;stroke:#000000"
       cy="970.99603"
       cx="-289.56281"
       r="4.6669998" />
    <circle
       id="circle128"
       style="fill:none;stroke:#000000"
       cy="955.33002"
       cx="-296.56281"
       r="3.3329999" />
    <circle
       id="circle130"
       style="fill:none;stroke:#000000"
       cy="955.33002"
       cx="-282.89282"
       r="3.3329999" />
    <line
       id="line132"
       style="fill:none;stroke:#000000"
       y2="982.74603"
       x2="-303.54282"
       y1="982.74603"
       x1="-275.30283" />
    <path
       id="path136"
       d="m -360.00982,955.58703 3.106,-3.106 c -0.986,0.756 -2.946,0.354 -4.195,-0.895 -1.542,-1.542 -4.042,-1.542 -5.583,0 -1.249,1.248 -3.228,1.65 -4.215,0.895 l 3.107,3.106"
       style="fill:#000000;stroke:#000000;stroke-width:0.6214;stroke-linecap:round;stroke-linejoin:round"
       inkscape:connector-curvature="0" />
    <path
       id="path138"
       d="m -369.29982,957.11503 -3.106,-3.105 c 0.755,0.987 0.354,2.946 -0.895,4.195 -1.542,1.541 -1.542,4.042 0,5.583 1.249,1.249 1.65,3.228 0.895,4.215 l 3.106,-3.106"
       style="fill:#000000;stroke:#000000;stroke-width:0.6214;stroke-linecap:round;stroke-linejoin:round"
       inkscape:connector-curvature="0" />
    <path
       id="path140"
       d="m -367.77082,966.40603 -3.106,3.106 c 0.987,-0.755 2.947,-0.354 4.195,0.895 1.542,1.542 4.042,1.542 5.584,0 1.249,-1.248 3.228,-1.649 4.215,-0.895 l -3.107,-3.106"
       style="fill:#000000;stroke:#000000;stroke-width:0.6214;stroke-linecap:round;stroke-linejoin:round"
       inkscape:connector-curvature="0" />
    <path
       id="path142"
       d="m -358.48082,964.87803 3.106,3.105 c -0.755,-0.986 -0.354,-2.946 0.895,-4.194 1.542,-1.542 1.542,-4.043 0,-5.584 -1.249,-1.249 -1.65,-3.228 -0.895,-4.215 l -3.106,3.106"
       style="fill:#000000;stroke:#000000;stroke-width:0.6214;stroke-linecap:round;stroke-linejoin:round"
       inkscape:connector-curvature="0" />
    <ellipse
       id="ellipse144"
       style="fill:#000000;stroke:#000000;stroke-width:0.75"
       cx="-363.89081"
       cy="960.99701"
       rx="6.6329999"
       ry="6.704" />
    <rect
       id="rect148"
       style="fill:#ffffff;stroke:#000000;stroke-width:0.75"
       height="5.0170002"
       width="110.17"
       y="922.50104"
       x="-269.56281" />
    <rect
       id="rect150"
       style="fill:#ffffff;stroke:#000000;stroke-width:0.75"
       height="7.8039999"
       width="4"
       y="920.82904"
       x="-271.89282" />
    <rect
       id="rect152"
       style="fill:#ffffff;stroke:#000000;stroke-width:0.75"
       height="7.8039999"
       width="4"
       y="920.82904"
       x="-161.30283" />
    <rect
       id="rect156"
       style="fill:#ffffff;stroke:#000000;stroke-width:0.75"
       height="5.0170002"
       width="110.17"
       y="931.69702"
       x="-269.56281" />
    <rect
       id="rect158"
       style="fill:#ffffff;stroke:#000000;stroke-width:0.75"
       height="7.8039999"
       width="4"
       y="930.02502"
       x="-271.89282" />
    <rect
       id="rect160"
       style="fill:#ffffff;stroke:#000000;stroke-width:0.75"
       height="7.8039999"
       width="4"
       y="930.02502"
       x="-161.30283" />
    <rect
       id="rect162"
       style="fill:#ffffff;stroke:#000000;stroke-width:0.75"
       height="1.6670001"
       width="117.33"
       y="940.99603"
       x="-272.72281" />
    <rect
       id="rect164"
       style="fill:#ffffff;stroke:#000000;stroke-width:0.75"
       height="1.6670001"
       width="117.33"
       y="957.49603"
       x="-272.72281" />
    <line
       id="line168"
       style="fill:none;stroke:#000000;stroke-width:0.75"
       x1="-268.30283"
       y1="942.49603"
       x2="-268.30283"
       y2="957.49603" />
    <line
       id="line170"
       style="fill:none;stroke:#000000;stroke-width:0.75"
       x1="-260.05283"
       y1="942.49603"
       x2="-260.05283"
       y2="957.49603" />
    <line
       id="line172"
       style="fill:none;stroke:#000000;stroke-width:0.75"
       x1="-251.80283"
       y1="942.49603"
       x2="-251.80283"
       y2="957.49603" />
    <line
       id="line174"
       style="fill:none;stroke:#000000;stroke-width:0.75"
       x1="-243.55283"
       y1="942.49603"
       x2="-243.55283"
       y2="957.49603" />
    <line
       id="line176"
       style="fill:none;stroke:#000000;stroke-width:0.75"
       x1="-227.30283"
       y1="942.49603"
       x2="-227.30283"
       y2="957.49603" />
    <line
       id="line178"
       style="fill:none;stroke:#000000;stroke-width:0.75"
       x1="-219.05283"
       y1="942.49603"
       x2="-219.05283"
       y2="957.49603" />
    <line
       id="line180"
       style="fill:none;stroke:#000000;stroke-width:0.75"
       x1="-210.80283"
       y1="942.49603"
       x2="-210.80283"
       y2="957.49603" />
    <line
       id="line182"
       style="fill:none;stroke:#000000;stroke-width:0.75"
       x1="-202.55283"
       y1="942.49603"
       x2="-202.55283"
       y2="957.49603" />
    <line
       id="line184"
       style="fill:none;stroke:#000000;stroke-width:0.75"
       x1="-194.30283"
       y1="942.49603"
       x2="-194.30283"
       y2="957.49603" />
    <line
       id="line186"
       style="fill:none;stroke:#000000;stroke-width:0.75"
       x1="-186.05283"
       y1="942.49603"
       x2="-186.05283"
       y2="957.49603" />
    <line
       id="line188"
       style="fill:none;stroke:#000000;stroke-width:0.75"
       x1="-177.80283"
       y1="942.49603"
       x2="-177.80283"
       y2="957.49603" />
    <line
       id="line190"
       style="fill:none;stroke:#000000;stroke-width:0.75"
       x1="-169.55283"
       y1="942.49603"
       x2="-169.55283"
       y2="957.49603" />
    <line
       id="line192"
       style="fill:none;stroke:#000000;stroke-width:0.75"
       x1="-161.30283"
       y1="942.49603"
       x2="-161.30283"
       y2="957.49603" />
    <line
       id="line196"
       style="fill:none;stroke:#000000;stroke-width:0.75"
       x1="-266.97281"
       y1="942.49603"
       x2="-266.97281"
       y2="957.49603" />
    <line
       id="line198"
       style="fill:none;stroke:#000000;stroke-width:0.75"
       x1="-258.72281"
       y1="942.49603"
       x2="-258.72281"
       y2="957.49603" />
    <line
       id="line200"
       style="fill:none;stroke:#000000;stroke-width:0.75"
       x1="-250.47282"
       y1="942.49603"
       x2="-250.47282"
       y2="957.49603" />
    <line
       id="line202"
       style="fill:none;stroke:#000000;stroke-width:0.75"
       x1="-242.22282"
       y1="942.49603"
       x2="-242.22282"
       y2="957.49603" />
    <line
       id="line204"
       style="fill:none;stroke:#000000;stroke-width:0.75"
       x1="-225.97282"
       y1="942.49603"
       x2="-225.97282"
       y2="957.49603" />
    <line
       id="line206"
       style="fill:none;stroke:#000000;stroke-width:0.75"
       x1="-235.30283"
       y1="942.49603"
       x2="-235.30283"
       y2="957.49603" />
    <line
       id="line208"
       style="fill:none;stroke:#000000;stroke-width:0.75"
       x1="-233.97282"
       y1="942.49603"
       x2="-233.97282"
       y2="957.49603" />
    <line
       id="line210"
       style="fill:none;stroke:#000000;stroke-width:0.75"
       x1="-217.72282"
       y1="942.49603"
       x2="-217.72282"
       y2="957.49603" />
    <line
       id="line212"
       style="fill:none;stroke:#000000;stroke-width:0.75"
       x1="-209.47282"
       y1="942.49603"
       x2="-209.47282"
       y2="957.49603" />
    <line
       id="line214"
       style="fill:none;stroke:#000000;stroke-width:0.75"
       x1="-201.22282"
       y1="942.49603"
       x2="-201.22282"
       y2="957.49603" />
    <line
       id="line216"
       style="fill:none;stroke:#000000;stroke-width:0.75"
       x1="-192.97282"
       y1="942.49603"
       x2="-192.97282"
       y2="957.49603" />
    <line
       id="line218"
       style="fill:none;stroke:#000000;stroke-width:0.75"
       x1="-184.72282"
       y1="942.49603"
       x2="-184.72282"
       y2="957.49603" />
    <line
       id="line220"
       style="fill:none;stroke:#000000;stroke-width:0.75"
       x1="-176.47282"
       y1="942.49603"
       x2="-176.47282"
       y2="957.49603" />
    <line
       id="line222"
       style="fill:none;stroke:#000000;stroke-width:0.75"
       x1="-168.22284"
       y1="942.49603"
       x2="-168.22284"
       y2="957.49603" />
    <line
       id="line224"
       style="fill:none;stroke:#000000;stroke-width:0.75"
       x1="-159.97284"
       y1="942.49603"
       x2="-159.97284"
       y2="957.49603" />
    <path
       id="path226"
       style="fill:none;stroke:#000000"
       inkscape:connector-curvature="0"
       d="m -151.55282,990.96603 9.75,0 0,-38.22 c 0,-12 0.375,-15.875 -9,-15.875" />
    <line
       id="line228"
       style="fill:none;stroke:#000000;stroke-width:1.5"
       y2="990.966"
       x2="-140.55283"
       y1="990.966"
       x1="-151.55283" />
    <circle
       id="circle230"
       style="fill:none;stroke:#000000;stroke-width:0.5"
       cy="931.99701"
       cx="-294.47281"
       r="3.3329999" />
    <circle
       id="circle232"
       style="fill:none;stroke:#000000;stroke-width:0.5"
       cy="931.99701"
       cx="-284.55283"
       r="3.3329999" />
    <circle
       id="circle234"
       style="fill:none;stroke:#000000;stroke-width:0.5"
       cy="939.99701"
       cx="-294.47281"
       r="3.3329999" />
    <circle
       id="circle236"
       style="fill:none;stroke:#000000;stroke-width:0.5"
       cy="939.99701"
       cx="-284.55283"
       r="3.3329999" />
    <path
       id="path240"
       d="m -332.94582,959.33003 0,-5.389 1.423,0 1.12,1.975 c 0.32,0.567 0.632,1.239 0.879,1.847 l 0.016,0 c -0.072,-0.711 -0.096,-1.438 -0.096,-2.255 l 0,-1.566 1.12,0 0,5.389 -1.279,0 -1.151,-2.079 c -0.32,-0.583 -0.68,-1.271 -0.936,-1.902 l -0.032,0 c 0.04,0.72 0.056,1.479 0.056,2.358 l 0,1.623 -1.12,0 z"
       style="fill:#000000"
       inkscape:connector-curvature="0" />
    <path
       id="path242"
       d="m -325.68282,959.41803 c -1.143,0 -2.023,-0.752 -2.023,-2.015 0,-1.264 0.832,-2.071 2.095,-2.071 1.191,0 1.991,0.824 1.991,2.007 0,1.424 -1.016,2.079 -2.055,2.079 l -0.01,0 z m 0.024,-0.871 c 0.48,0 0.776,-0.472 0.776,-1.176 0,-0.575 -0.224,-1.167 -0.776,-1.167 -0.576,0 -0.799,0.592 -0.799,1.175 0,0.664 0.28,1.168 0.792,1.168 l 0.007,0 z"
       style="fill:#000000"
       inkscape:connector-curvature="0" />
    <path
       id="path244"
       d="m -319.85282,955.21203 -0.016,0 -0.992,0.472 -0.2,-0.911 1.383,-0.64 1,0 0,5.197 -1.175,0 0,-4.118 z"
       style="fill:#000000"
       inkscape:connector-curvature="0" />
    <g
       id="g4620"
       transform="matrix(2.0277789,0,0,2.0277789,-57.200983,-1053.2912)">
      <path
         d="m 31.383817,1027.6319 -1.277864,0.6654 c -0.061,0.032 -0.138981,0.013 -0.174159,-0.042 l -0.558177,-0.8681 c -0.03518,-0.055 -0.01421,-0.1248 0.04679,-0.1564 l 1.281676,-0.6607 -1.281503,-0.6645 c -0.061,-0.032 -0.08197,-0.1016 -0.04679,-0.1564 l 0.55835,-0.8681 c 0.03518,-0.055 0.113161,-0.074 0.17416,-0.042 l 1.277863,0.6663 0,-1.3287 c 0,-0.063 0.05719,-0.1145 0.127544,-0.1145 l 1.116354,0 c 0.07053,0 0.127544,0.051 0.127544,0.1145 l 0,1.3278 1.277863,-0.6654 c 0.06117,-0.032 0.139155,-0.013 0.174333,0.042 l 0.558177,0.868 c 0.03535,0.055 0.01438,0.1249 -0.04679,0.1565 l -1.281676,0.6606 1.281676,0.6646 c 0.06117,0.032 0.08197,0.1016 0.04696,0.1564 l -0.55835,0.868 c -0.03535,0.055 -0.113334,0.074 -0.174333,0.042 l -1.277863,-0.6663 0,1.3287 c 0,0.063 -0.05701,0.1146 -0.127371,0.1146 l -1.116354,0 c -0.07053,0 -0.127717,-0.051 -0.127717,-0.1146 l 0,-1.3278 z"
         inkscape:connector-curvature="0"
         style="clip-rule:evenodd;fill:none;stroke:#000000;stroke-width:0.16421239"
         id="path4602" />
      <path
         d="m 31.383817,1027.6319 -1.277864,0.6654 c -0.061,0.032 -0.138981,0.013 -0.174159,-0.042 l -0.558177,-0.8681 c -0.03518,-0.055 -0.01421,-0.1248 0.04679,-0.1564 l 1.281676,-0.6607 -1.281503,-0.6645 c -0.061,-0.032 -0.08197,-0.1016 -0.04679,-0.1564 l 0.55835,-0.8681 c 0.03518,-0.055 0.113161,-0.074 0.17416,-0.042 l 1.277863,0.6663 0,-1.3287 c 0,-0.063 0.05719,-0.1145 0.127544,-0.1145 l 1.116354,0 c 0.07053,0 0.127544,0.051 0.127544,0.1145 l 0,1.3278 1.277863,-0.6654 c 0.06117,-0.032 0.139155,-0.013 0.174333,0.042 l 0.558177,0.868 c 0.03535,0.055 0.01438,0.1249 -0.04679,0.1565 l -1.281676,0.6606 1.281676,0.6646 c 0.06117,0.032 0.08197,0.1016 0.04696,0.1564 l -0.55835,0.868 c -0.03535,0.055 -0.113334,0.074 -0.174333,0.042 l -1.277863,-0.6663 0,1.3287 c 0,0.063 -0.05701,0.1146 -0.127371,0.1146 l -1.116354,0 c -0.07053,0 -0.127717,-0.051 -0.127717,-0.1146 l 0,-1.3278 z"
         inkscape:connector-curvature="0"
         style="clip-rule:evenodd;fill:#000000;fill-rule:evenodd;stroke:#000000;stroke-width:0.12089316"
         id="path4604" />
      <path
         d="m 32.040598,1028.7694 c -0.03189,0 -0.08509,-0.019 -0.08509,-0.1016 0,-0.083 -0.06377,-4.1052 -0.06377,-4.1978 0,-0.092 0.116973,-0.1016 0.17,-0.1016 0.05303,0 0.170001,0.01 0.170001,0.1016 0,0.093 -0.06377,4.1144 -0.06377,4.1978 0,0.083 -0.0532,0.1016 -0.08491,0.1016 l -0.04246,0 z"
         inkscape:connector-curvature="0"
         style="clip-rule:evenodd;fill:#ffffff;fill-rule:evenodd;stroke:#000000;stroke-width:0.16421239"
         id="path4606" />
      <path
         d="m 31.884634,1025.4783 c 0.06776,-0.061 0.195301,-0.061 0.239144,-0.021 0.06776,0.061 0.180745,0.045 0.263232,-0.029 0.0837,-0.075 0.0068,-0.2017 -0.07971,-0.2792 -0.0837,-0.075 -0.329604,-0.117 -0.446577,-0.043 -0.125637,0.08 -0.311061,0.2292 -0.311061,0.4725 0,0.2434 0.207259,0.4152 0.350745,0.4653 l -0.01577,-0.5655 z"
         inkscape:connector-curvature="0"
         style="clip-rule:evenodd;fill:#ffffff;fill-rule:evenodd;stroke:#000000;stroke-width:0.0302315"
         id="path4608" />
      <ellipse
         cy="1025.2278"
         cx="32.20002"
         style="clip-rule:evenodd;fill:#ff7f00;fill-rule:evenodd;stroke:#000000;stroke-width:0.16421239"
         id="ellipse4610"
         rx="0.037258018"
         ry="0.033455618" />
      <path
         d="m 31.903696,1026.7792 c -0.524905,-0.1394 -0.340174,-0.8258 0.342947,-0.7159 l 0,-0.4297 c 0.494405,0.1325 0.486434,0.8556 -0.350745,0.7732 l 0.0078,0.3724 z"
         inkscape:connector-curvature="0"
         style="clip-rule:evenodd;fill:#ffffff;fill-rule:evenodd;stroke:#000000;stroke-width:0.0302315"
         id="path4612" />
      <path
         d="m 31.915826,1027.4748 c -0.404292,-0.2148 -0.21523,-0.6038 0.310888,-0.6372 l 0,-0.3151 c 0.494406,0.2959 0.239318,0.654 -0.318859,0.6658 l 0.008,0.2865 z"
         inkscape:connector-curvature="0"
         style="clip-rule:evenodd;fill:#ffffff;fill-rule:evenodd;stroke:#000000;stroke-width:0.0302315"
         id="path4614" />
      <path
         inkscape:connector-curvature="0"
         style="clip-rule:evenodd;fill:#ffffff;fill-rule:evenodd;stroke:#000000;stroke-width:0.0302315"
         d="m 31.924491,1028.0925 c -0.265831,-0.2172 -0.0506,-0.3865 0.287147,-0.5012 l 0,-0.2292 c 0.464079,0.4209 -0.123731,0.3626 -0.291479,0.575 l 0.0043,0.1554 z"
         id="path4616" />
      <path
         inkscape:connector-curvature="0"
         style="clip-rule:evenodd;fill:#ffffff;fill-rule:evenodd;stroke:#000000;stroke-width:0.0302315"
         d="m 32.193095,1028.1672 c 0.224588,0.2183 -0.465118,0.2636 -0.09704,0.1146 0.02547,-0.01 0.07538,-0.023 0.09427,-0.042 l 0.0028,-0.073 z"
         id="path4618" />
    </g>
    <text
       xml:space="preserve"
       style="font-style:normal;font-weight:normal;font-size:6.33717442px;line-height:125%;font-family:sans-serif;letter-spacing:0px;word-spacing:0px;fill:#000000;fill-opacity:1;stroke:none;stroke-width:1px;stroke-linecap:butt;stroke-linejoin:miter;stroke-opacity:1"
       x="14.070423"
       y="1030.7216"
       id="text4631"
       sodipodi:linespacing="125%"><tspan
         sodipodi:role="line"
         id="tspan4633"
         x="14.070423"
         y="1030.7216"><tspan
   style="fill:#008080"
   id="tspan4635">mobi</tspan>clinic</tspan></text>
  </g>
</svg>
